<?xml version="1.0" standalone="no"?>
<!DOCTYPE svg PUBLIC "-//W3C//DTD SVG 20010904//EN"
 "http://www.w3.org/TR/2001/REC-SVG-20010904/DTD/svg10.dtd">
<svg version="1.0" xmlns="http://www.w3.org/2000/svg"
 width="500.000000pt" height="500.000000pt" viewBox="0 0 500.000000 500.000000"
 preserveAspectRatio="xMidYMid meet">
<metadata>
Created by potrace 1.10, written by Peter Selinger 2001-2011
</metadata>
<g transform="translate(0.000000,500.000000) scale(0.100000,-0.100000)"
fill="#b2e29d" stroke="none">
<path d="M0 2750 l0 -2250 2250 0 2250 0 0 2250 0 2250 -2250 0 -2250 0 0
-2250z m1520 413 c0 -10 -7 -71 -15 -135 -8 -64 -26 -228 -40 -365 -15 -136
-28 -249 -30 -252 -5 -5 -142 -30 -167 -30 -23 -1 -23 38 -3 213 8 71 14 130
12 132 -1 2 -29 -70 -62 -158 -33 -88 -64 -166 -70 -173 -5 -7 -36 -15 -67
-18 l-58 -6 0 61 c0 33 5 114 11 180 6 65 9 121 7 124 -2 2 -26 -73 -52 -166
-27 -93 -54 -174 -60 -179 -6 -5 -47 -11 -91 -12 -75 -3 -80 -2 -77 16 2 11
33 112 69 225 36 113 85 272 108 354 24 81 47 152 52 156 4 4 56 11 116 15
l107 7 0 -24 c0 -12 -12 -95 -25 -183 -24 -158 -29 -207 -18 -175 28 79 147
367 154 375 10 10 119 32 172 34 20 1 27 -4 27 -16z m458 -10 c69 -50 97 -187
68 -334 -73 -372 -443 -605 -550 -347 -26 61 -21 191 10 290 69 218 184 364
324 409 40 13 119 4 148 -18z m1872 11 c0 -3 -20 -58 -45 -122 -25 -64 -68
-184 -97 -267 l-53 -150 -62 -3 c-40 -2 -63 1 -63 8 0 18 123 505 129 512 13
15 191 36 191 22z m-1584 -41 c-14 -93 -49 -523 -43 -529 2 -2 21 78 41 178
20 101 47 226 59 278 l22 95 83 9 c45 5 85 7 87 4 3 -3 -10 -61 -29 -129 -19
-68 -62 -236 -97 -374 -34 -137 -66 -253 -70 -256 -12 -7 -269 -42 -275 -37
-2 3 5 105 15 229 11 123 23 296 27 384 3 88 11 166 16 173 7 8 38 12 90 12
l80 0 -6 -37z m816 -27 c-15 -62 -17 -64 -51 -70 -20 -3 -55 -6 -78 -6 -38 0
-43 -3 -49 -27 -3 -16 -10 -44 -15 -63 -5 -19 -9 -48 -9 -63 l0 -29 68 4 67 3
-3 -40 c-5 -81 -8 -85 -60 -86 -92 -2 -95 -4 -113 -103 l-16 -88 56 7 c31 3
64 8 74 11 15 5 17 -2 17 -54 0 -36 -5 -64 -12 -70 -13 -10 -335 -58 -342 -51
-7 7 119 705 135 746 7 18 18 22 86 28 43 3 87 7 98 9 11 2 52 4 91 5 l71 1
-15 -64z m371 50 c56 -23 72 -50 72 -119 l0 -62 -65 -22 c-36 -13 -71 -22 -79
-20 -8 1 -15 16 -16 35 -4 48 -17 58 -55 42 -63 -26 -66 -76 -9 -122 96 -77
113 -95 130 -133 25 -55 25 -166 0 -220 -51 -109 -207 -186 -318 -156 -44 12
-123 75 -123 98 0 9 17 46 37 84 37 68 37 69 58 50 31 -29 81 -51 115 -51 35
0 70 30 70 61 0 22 -49 75 -134 143 -86 69 -106 136 -67 221 55 122 272 219
384 171z m-748 -18 c-2 -13 -12 -63 -21 -113 -8 -49 -35 -189 -59 -310 -24
-121 -46 -239 -50 -263 -8 -51 -18 -56 -123 -66 -68 -7 -73 -6 -68 11 17 60
41 171 91 433 32 162 60 298 64 302 7 8 98 25 144 27 23 1 27 -2 22 -21z m876
-578 c102 -28 111 -155 14 -196 -90 -37 -165 8 -165 98 0 42 23 76 64 94 38
16 42 16 87 4z"/>
<path d="M1782 2920 c-92 -56 -170 -302 -112 -355 27 -24 84 -14 123 22 82 78
139 310 85 345 -22 14 -62 9 -96 -12z"/>
</g>
</svg>
