<?xml version="1.0" standalone="no"?>
<!DOCTYPE svg PUBLIC "-//W3C//DTD SVG 20010904//EN"
 "http://www.w3.org/TR/2001/REC-SVG-20010904/DTD/svg10.dtd">
<svg version="1.0" xmlns="http://www.w3.org/2000/svg"
 width="300.000000pt" height="115.000000pt" viewBox="0 0 300.000000 115.000000"
 preserveAspectRatio="xMidYMid meet">
<metadata>
Created by potrace 1.10, written by Peter Selinger 2001-2011
</metadata>
<g transform="translate(0.000000,115.000000) scale(0.050000,-0.050000)"
fill="#d8f98a" stroke="none">
<path d="M0 1150 l0 -1150 3000 0 3000 0 0 1150 0 1150 -3000 0 -3000 0 0
-1150z m1640 663 c0 -25 -13 -140 -28 -255 -16 -114 -44 -379 -64 -588 -41
-443 -22 -402 -204 -437 -177 -33 -173 -41 -143 224 34 313 21 315 -91 19
l-100 -266 -105 -6 -105 -6 0 87 c0 49 10 185 22 303 28 287 20 281 -72 -49
-43 -154 -84 -289 -90 -299 -17 -27 -300 -51 -300 -25 0 11 67 235 149 498 82
262 167 542 191 622 30 106 51 145 76 146 19 1 100 8 181 16 107 11 150 8 156
-9 8 -20 -30 -348 -64 -558 l-10 -60 30 60 c16 33 72 168 123 300 111 286 109
284 248 307 184 31 200 29 200 -24z m770 -1 c128 -84 167 -363 90 -647 -192
-714 -929 -948 -927 -295 2 571 518 1151 837 942z m1868 -7 c0 -19 -12 -71
-25 -115 l-24 -80 -129 -10 -130 -10 -23 -100 c-43 -187 -42 -190 83 -190
l110 0 0 -78 c0 -130 -11 -142 -133 -142 -125 0 -135 -13 -164 -205 l-17 -116
102 13 c56 7 111 14 122 15 22 3 26 -178 5 -199 -16 -15 -441 -87 -520 -88
-74 0 -59 118 126 1059 50 256 14 227 316 253 139 12 264 24 278 25 14 2 24
-13 23 -32z m1262 20 c0 -9 -28 -88 -62 -175 -35 -88 -105 -286 -157 -440
l-94 -280 -99 -12 c-54 -7 -104 -7 -112 0 -14 13 188 853 212 876 30 30 312
58 312 31z m-2652 -80 c-70 -687 -82 -966 -29 -704 159 792 153 778 335 779
l123 0 -40 -145 c-22 -80 -94 -361 -160 -625 -66 -264 -126 -487 -134 -495
-20 -20 -441 -84 -456 -68 -7 7 2 199 19 428 18 228 38 519 45 645 16 280 3
260 168 260 l137 0 -8 -75z m2060 17 c120 -113 83 -264 -75 -310 -136 -40
-133 -40 -133 6 0 102 -70 135 -143 69 -75 -68 -34 -147 136 -264 284 -194
140 -688 -221 -763 -190 -39 -431 60 -405 167 29 115 126 256 153 222 68 -81
232 -117 279 -60 52 63 16 136 -128 256 -218 182 -257 280 -174 435 128 238
559 385 711 242z m-1335 -57 c-23 -168 -217 -1155 -230 -1169 -7 -7 -77 -19
-156 -27 l-142 -14 45 208 c25 114 79 383 119 597 99 523 76 486 309 497 l67
3 -12 -95z m1575 -967 c60 -70 66 -130 19 -196 -114 -162 -367 -102 -367 87 0
169 236 243 348 109z"/>
<path d="M2078 1414 c-203 -136 -294 -614 -117 -614 148 0 302 248 306 496 4
172 -55 209 -189 118z"/>
</g>
</svg>
